<svg width="24" height="24" viewBox="0 0 24 24" fill="none" xmlns="http://www.w3.org/2000/svg">
<rect width="24" height="24" rx="1" fill="#039E2E"/>
<path d="M17.8334 11.9998C17.8334 12.4601 17.4603 12.8332 17 12.8332H12.8334V16.9998C12.8334 17.4601 12.4603 17.8332 12 17.8332V17.8332C11.5398 17.8332 11.1667 17.4601 11.1667 16.9998V12.8332H7.00002C6.53978 12.8332 6.16669 12.4601 6.16669 11.9998V11.9998C6.16669 11.5396 6.53978 11.1665 7.00002 11.1665H11.1667V6.99984C11.1667 6.5396 11.5398 6.1665 12 6.1665V6.1665C12.4603 6.1665 12.8334 6.5396 12.8334 6.99984V11.1665H17C17.4603 11.1665 17.8334 11.5396 17.8334 11.9998V11.9998Z" fill="white"/>
</svg>
