<svg width="10" height="10" viewBox="0 0 10 10" fill="none" xmlns="http://www.w3.org/2000/svg">
<path d="M9.72125 1.33625C10.0133 1.04423 10.0133 0.57077 9.72125 0.27875C9.42923 -0.0132705 8.95577 -0.0132706 8.66375 0.27875L5 3.9425L1.33625 0.27875C1.04423 -0.013271 0.57077 -0.0132705 0.27875 0.27875C-0.0132705 0.57077 -0.0132706 1.04423 0.27875 1.33625L3.9425 5L0.27875 8.66375C-0.013271 8.95577 -0.0132705 9.42923 0.27875 9.72125C0.57077 10.0133 1.04423 10.0133 1.33625 9.72125L5 6.0575L8.66375 9.72125C8.95577 10.0133 9.42923 10.0133 9.72125 9.72125C10.0133 9.42923 10.0133 8.95577 9.72125 8.66375L6.0575 5L9.72125 1.33625Z" fill="white"/>
</svg>
