<svg width="10" height="10" viewBox="0 0 10 10" fill="none" xmlns="http://www.w3.org/2000/svg">
<path d="M5.83168 9.65269C6.34341 9.45111 6.59717 8.8675 6.39559 8.35577L4.53476 9.08877C4.73634 9.6005 5.3153 9.8561 5.83168 9.65269ZM7.52343 5.76193L6.60717 3.43589C6.04459 2.0077 4.8107 1.11264 3.35559 1.32039L3.23098 1.00405C3.07888 0.617928 2.64441 0.429016 2.25829 0.581114C1.87217 0.733212 1.68326 1.16768 1.83535 1.5538L1.95996 1.87015C0.749426 2.71242 0.460257 4.20205 1.02467 5.63489L1.94092 7.96094L1.37701 9.25786L1.56026 9.72307L9.0036 6.79106L8.82035 6.32585L7.52343 5.76193Z" fill="white"/>
</svg>
